<svg id="Layer_1" height="512" viewBox="0 0 512 512" width="512" xmlns="http://www.w3.org/2000/svg" data-name="Layer 1"><path d="m109.38 275.25v181.2h293.24v-180.66-.54z" fill="#978cac"/><path d="m109.38 55.55v181.15h293.24v-180.84-.31z" fill="#978cac"/><g fill="#495c66"><path d="m414.07 456.45h-316.14a19.275 19.275 0 0 0 0 38.55h316.14a19.275 19.275 0 0 0 0-38.55z"/><path d="m414.07 17h-316.14a19.275 19.275 0 0 0 0 38.55h316.14a19.275 19.275 0 0 0 0-38.55z"/><path d="m413.99 236.7h-315.98a19.275 19.275 0 1 0 0 38.55h315.98a19.275 19.275 0 1 0 0-38.55z"/></g><path d="m169.81 275.25a88.411 88.411 0 1 1 86.19 68.72 87.9 87.9 0 0 1 -86.19-68.72z" fill="#61a3bc"/><path d="m290.28 254.89a39.73 39.73 0 1 1 -68.56 0l34.28-58.29z" fill="#f3ce7d"/><path d="m109.38 275.25h30v181.2h-30z" fill="#787289"/><path d="m109.38 55.55h30v181.15h-30z" fill="#787289"/><path d="m108.66 475.72a19.273 19.273 0 0 1 19.27-19.27h-30a19.275 19.275 0 0 0 0 38.55h30a19.275 19.275 0 0 1 -19.27-19.28z" fill="#3b4a51"/><path d="m97.93 55.55h30a19.275 19.275 0 0 1 0-38.55h-30a19.275 19.275 0 0 0 0 38.55z" fill="#3b4a51"/><path d="m108.66 255.98a19.325 19.325 0 0 1 19.35-19.28h-30a19.275 19.275 0 1 0 0 38.55h30a19.31 19.31 0 0 1 -19.35-19.27z" fill="#3b4a51"/><path d="m199.81 275.25a87.929 87.929 0 0 1 71.19-105.95 88.463 88.463 0 0 0 -101.19 67.47 87.961 87.961 0 0 0 86.19 107.2 89.113 89.113 0 0 0 15-1.273 88.265 88.265 0 0 1 -71.19-67.447z" fill="#538ea0"/><g fill="#284268"><path d="m414.066 61.554a25.277 25.277 0 1 0 0-50.554h-316.132a25.277 25.277 0 0 0 0 50.554h5.451v169.146h-5.375a25.277 25.277 0 1 0 0 50.554h5.375v169.192h-5.451a25.277 25.277 0 0 0 0 50.554h316.132a25.277 25.277 0 1 0 0-50.554h-5.451v-169.192h5.375a25.277 25.277 0 1 0 0-50.554h-5.375v-169.146zm-316.056 207.7a13.277 13.277 0 1 1 0-26.554h64.625a93.644 93.644 0 0 0 -.006 26.554zm157.99 80.714a94.427 94.427 0 0 0 90.85-68.714h49.765v169.192h-281.23v-169.192h49.765a94.427 94.427 0 0 0 90.85 68.714zm-82.314-93.968c0-45.2 36.926-81.968 82.314-81.968s82.314 36.768 82.314 81.968-36.926 81.968-82.314 81.968-82.314-36.768-82.314-81.968zm173.152-25.3a94.416 94.416 0 0 0 -181.675 0h-49.778v-169.146h281.23v169.146zm67.228 231.746a13.277 13.277 0 1 1 0 26.554h-316.132a13.277 13.277 0 0 1 0-26.554zm-.076-219.746a13.277 13.277 0 1 1 0 26.554h-64.619a93.644 93.644 0 0 0 -.006-26.554zm-316.056-193.146a13.277 13.277 0 0 1 0-26.554h316.132a13.277 13.277 0 1 1 0 26.554z"/><path d="m147.374 300.634a6 6 0 0 0 -6 6v6.5a6 6 0 0 0 12 0v-6.5a6 6 0 0 0 -6-6z"/><path d="m147.374 328.238a6 6 0 0 0 -6 6v64.3a6 6 0 0 0 12 0v-64.3a6 6 0 0 0 -6-6z"/><path d="m256 320.442a45.563 45.563 0 0 0 39.452-68.593l-34.28-58.291a6 6 0 0 0 -10.344 0l-34.28 58.291a45.563 45.563 0 0 0 39.452 68.593zm-29.108-62.51 29.108-49.497 29.108 49.5a33.472 33.472 0 0 1 -5.25 40.691 33.872 33.872 0 0 1 -47.716 0 33.472 33.472 0 0 1 -5.25-40.694z"/><path d="m263.209 296.775a5.976 5.976 0 0 0 1.944-.325 28.079 28.079 0 0 0 18.4-20.951 6 6 0 1 0 -11.761-2.383 16.084 16.084 0 0 1 -10.527 11.984 6 6 0 0 0 1.944 11.677z"/></g></svg>