<svg width="750" height="700" viewBox="0 0 750 700" fill="none" xmlns="http://www.w3.org/2000/svg">
<path fill-rule="evenodd" clip-rule="evenodd" d="M325.08 27.9434C389.057 24.6297 457.06 17.4939 511.008 52.0414C566.343 87.4764 594.837 151.211 615.152 213.699C635.471 276.197 640.087 341.534 625.991 405.722C610.654 475.563 585.342 545.113 531.934 592.66C475.244 643.13 400.827 678.448 325.08 673.615C251.297 668.907 190.342 618.158 136.554 567.433C88.4442 522.062 58.7698 463.988 36.696 401.651C14.0318 337.647 -14.2308 269.075 8.21247 204.993C30.4941 141.372 93.7914 103.484 152.638 70.6033C205.626 40.9961 264.463 31.0831 325.08 27.9434Z" fill="#CBE2DE"/>
<path d="M372.297 309.559H241.313V172.659C241.313 168.621 244.74 165.347 248.968 165.347H364.643C368.871 165.347 372.297 168.621 372.297 172.659V309.559Z" fill="#77D1B3"/>
<path d="M241.313 309.559H110.329V228.766C110.329 221.06 116.869 214.813 124.935 214.813H241.313V309.559Z" fill="#77D1B3"/>
<path d="M364.643 165.347H328.906C333.133 165.347 336.561 168.621 336.561 172.659V309.559H372.298V172.659C372.297 168.621 368.871 165.347 364.643 165.347Z" fill="#629F96"/>
<path d="M205.575 214.812H241.313V309.559H205.575V214.812Z" fill="#629F96"/>
<path d="M211.347 422.446H437.076V458.45H211.347V422.446Z" fill="#4A8370"/>
<path d="M531.743 422.447H594.015C602.454 422.447 609.296 428.983 609.296 437.044V443.853C609.296 451.914 602.455 458.45 594.015 458.45H550.647" fill="#4A8370"/>
<path d="M83.4712 458.45H35.1131C26.6742 458.45 19.8328 451.914 19.8328 443.853V437.044C19.8328 428.983 26.6742 422.447 35.1131 422.447H104.922" fill="#4A8370"/>
<path d="M553.845 294.891C540.215 294.846 527.532 288.27 520.739 276.981L501.231 244.56C492.906 230.722 477.472 222.191 460.764 222.191H431.143C419.271 222.191 409.648 231.385 409.648 242.725V422.447H578.618C586.049 422.447 592.073 416.692 592.073 409.593V331.535C592.073 311.339 574.97 294.959 553.845 294.891V294.891Z" fill="#F7F7F7"/>
<path d="M520.453 276.508L501.23 244.56C492.903 230.722 477.47 222.191 460.763 222.191H447.325V291.531H537.716C530.585 288.404 524.495 283.225 520.453 276.508V276.508Z" fill="#BED9FD"/>
<path d="M490.693 530.45C527.053 524.82 551.75 492.098 545.856 457.364C539.961 422.63 505.708 399.038 469.348 404.668C432.988 410.299 408.291 443.021 414.185 477.754C420.08 512.488 454.333 536.081 490.693 530.45Z" fill="#736E6E"/>
<path d="M497.35 484.051C506.908 474.92 506.908 460.116 497.35 450.985C487.792 441.854 472.295 441.854 462.736 450.985C453.178 460.116 453.178 474.92 462.736 484.051C472.295 493.182 487.792 493.182 497.35 484.051Z" fill="#5A5555"/>
<path d="M409.647 309.559H59.7805C50.0741 309.559 42.2058 317.075 42.2058 326.348V422.447H409.647V309.559Z" fill="#B4AAAA"/>
<path d="M373.909 309.559H409.647V422.447H373.909V309.559Z" fill="#9B9696"/>
<path d="M592.073 367.434H545.408C541.16 367.434 537.716 364.144 537.716 360.086V348.974C537.716 339.362 545.874 331.569 555.936 331.569H592.073V367.434Z" fill="#F7E365"/>
<path d="M221.343 477.647C227.237 442.913 202.54 410.192 166.18 404.561C129.82 398.93 95.5663 422.523 89.6721 457.257C83.7779 491.991 108.475 524.712 144.835 530.343C181.195 535.974 215.448 512.381 221.343 477.647Z" fill="#736E6E"/>
<path d="M179.668 471.194C181.831 458.447 172.768 446.438 159.424 444.372C146.08 442.305 133.509 450.964 131.346 463.711C129.183 476.458 138.247 488.466 151.591 490.533C164.934 492.599 177.505 483.941 179.668 471.194Z" fill="#5A5555"/>
<path d="M83.9047 382.434H42.2058V339.937H83.9047C91.8874 339.937 98.3583 346.118 98.3583 353.743V368.626C98.3583 376.252 91.8874 382.434 83.9047 382.434Z" fill="#F7F7F7"/>
<path d="M157.394 214.812H196.168V260.86H157.394V214.812Z" fill="#629F96"/>
<path d="M287.29 165.347H326.064V211.394H287.29V165.347Z" fill="#629F96"/>
<path d="M601.008 414.905V331.569V331.536C601.008 306.623 579.79 286.355 553.712 286.355C543.21 286.355 533.433 280.952 528.199 272.254L508.976 240.307C499.085 223.869 480.61 213.656 460.762 213.656H431.302C414.522 213.656 400.871 226.696 400.871 242.725V301.023H381.233V172.658C381.233 163.921 373.791 156.812 364.643 156.812H248.967C239.821 156.812 232.379 163.921 232.379 172.658V206.276H124.937C111.957 206.276 101.395 216.365 101.395 228.765V242.53C101.395 247.244 105.395 251.065 110.329 251.065C115.263 251.065 119.264 247.244 119.264 242.53V228.765C119.264 225.778 121.808 223.346 124.937 223.346H148.459V260.859C148.459 265.572 152.459 269.394 157.394 269.394H196.168C201.102 269.394 205.103 265.572 205.103 260.859V223.346H232.379V301.023H119.264V276.67C119.264 271.957 115.263 268.135 110.329 268.135C105.395 268.135 101.395 271.957 101.395 276.67V301.023H59.7804C45.1625 301.023 33.2713 312.384 33.2713 326.347V414C20.7797 414.906 10.8982 424.883 10.8982 437.044V443.853C10.8982 456.608 21.7613 466.985 35.113 466.985H79.9485C79.9473 467.162 79.9342 467.337 79.9342 467.514C79.9342 507.356 113.865 539.769 155.571 539.769C197.278 539.769 231.209 507.356 231.209 467.514C231.209 467.337 231.196 467.162 231.195 466.985H275.827C280.761 466.985 284.761 463.164 284.761 458.45C284.761 453.736 280.761 449.915 275.827 449.915H228.929C227.158 443.179 224.388 436.823 220.789 430.981H414.922C411.323 436.821 408.553 443.179 406.782 449.915H312.601C307.667 449.915 303.666 453.736 303.666 458.45C303.666 463.164 307.667 466.985 312.601 466.985H404.516C404.515 467.162 404.502 467.337 404.502 467.514C404.502 507.356 438.433 539.769 480.14 539.769C521.847 539.769 555.777 507.356 555.777 467.514C555.777 467.337 555.764 467.162 555.762 466.985H594.013C607.366 466.985 618.229 456.608 618.229 443.853V437.044C618.23 426.613 610.96 417.779 601.008 414.905V414.905ZM187.234 252.325H166.328V223.347H187.234V252.325ZM583.139 358.899H546.649V348.974C546.649 344.083 550.815 340.104 555.936 340.104H583.139V358.899ZM493.484 248.813L512.708 280.76C513.168 281.524 513.658 282.266 514.16 282.997H456.26V230.726H460.762C474.232 230.726 486.772 237.656 493.484 248.813V248.813ZM431.302 230.726H438.391V291.532V329.406C438.391 334.119 442.39 337.94 447.325 337.94C452.261 337.94 456.26 334.119 456.26 329.406V300.067H535.887C541.47 302.244 547.511 303.425 553.712 303.425C566.838 303.425 577.979 311.678 581.761 323.035H555.936C540.963 323.035 528.78 334.671 528.78 348.976V360.087C528.78 368.845 536.239 375.97 545.407 375.97H583.139V413.914H531.742C531.442 413.914 531.145 413.928 530.852 413.957C517.426 402.346 499.634 395.262 480.14 395.262C460.67 395.262 442.899 402.329 429.479 413.915H418.74V242.725C418.74 236.109 424.376 230.726 431.302 230.726V230.726ZM296.225 173.881H317.13V202.859H296.225V173.881ZM250.248 173.881H278.356V211.394C278.356 216.108 282.356 219.929 287.29 219.929H326.064C331 219.929 334.999 216.108 334.999 211.394V173.881H363.363V301.023H250.247V173.881H250.248ZM59.7804 318.094H250.435V375.039C250.435 379.752 254.435 383.574 259.369 383.574C264.303 383.574 268.304 379.752 268.304 375.039V318.094H400.872V413.913H206.233C192.813 402.327 175.041 395.26 155.572 395.26C136.103 395.26 118.331 402.327 104.911 413.913H51.1402V390.97H83.9047C96.8001 390.97 107.292 380.947 107.292 368.627V353.744C107.292 341.425 96.8001 331.403 83.9047 331.403H51.1402V326.349C51.1402 321.796 55.0166 318.094 59.7804 318.094V318.094ZM51.1402 348.471H83.9047C86.9472 348.471 89.4226 350.836 89.4226 353.743V368.626C89.4226 371.534 86.9472 373.899 83.9047 373.899H51.1402V348.471ZM35.113 449.915C31.6131 449.915 28.7671 447.195 28.7671 443.853V437.044C28.7671 433.701 31.6142 430.982 35.113 430.982H90.3542C86.7554 436.823 83.9857 443.18 82.2143 449.916H35.113V449.915ZM155.572 522.7C123.719 522.7 97.8043 497.944 97.8043 467.514C97.8043 437.085 123.719 412.33 155.572 412.33C187.425 412.33 213.341 437.085 213.341 467.514C213.34 497.943 187.425 522.7 155.572 522.7V522.7ZM480.14 522.7C448.287 522.7 422.371 497.944 422.371 467.514C422.371 437.085 448.287 412.33 480.14 412.33C511.993 412.33 537.908 437.085 537.908 467.514C537.908 497.943 511.993 522.7 480.14 522.7V522.7ZM600.361 443.853C600.361 447.196 597.513 449.915 594.014 449.915H553.498C551.726 443.179 548.957 436.823 545.358 430.981H594.015C597.515 430.981 600.362 433.701 600.362 437.043V443.853H600.361Z" fill="#0B3B41"/>
<path d="M482.266 331.392H490.68C495.616 331.392 499.615 327.57 499.615 322.857C499.615 318.143 495.616 314.322 490.68 314.322H482.266C477.331 314.322 473.332 318.143 473.332 322.857C473.332 327.571 477.331 331.392 482.266 331.392Z" fill="#0B3B41"/>
<path d="M480.14 435.595C461.715 435.595 446.725 449.914 446.725 467.514C446.725 485.114 461.715 499.433 480.14 499.433C498.564 499.433 513.554 485.114 513.554 467.514C513.554 449.914 498.564 435.595 480.14 435.595ZM480.14 482.365C471.569 482.365 464.594 475.703 464.594 467.515C464.594 459.327 471.569 452.666 480.14 452.666C488.711 452.666 495.685 459.327 495.685 467.515C495.685 475.703 488.712 482.365 480.14 482.365Z" fill="#0B3B41"/>
<path d="M155.572 435.595C137.148 435.595 122.158 449.914 122.158 467.514C122.158 485.114 137.148 499.433 155.572 499.433C173.996 499.433 188.986 485.114 188.986 467.514C188.986 449.914 173.996 435.595 155.572 435.595ZM155.572 482.365C147.001 482.365 140.027 475.703 140.027 467.515C140.027 459.327 147.001 452.666 155.572 452.666C164.143 452.666 171.117 459.327 171.117 467.515C171.117 475.703 164.143 482.365 155.572 482.365Z" fill="#0B3B41"/>
</svg>
