<svg width="750" height="700" viewBox="0 0 750 700" fill="none" xmlns="http://www.w3.org/2000/svg">
<path fill-rule="evenodd" clip-rule="evenodd" d="M332.94 29.9572C394.305 35.6361 451.572 56.8423 502.408 91.6799C554.503 127.381 595.971 173.936 624.932 230.058C658.698 295.49 699.825 366.851 681.165 438.077C662.242 510.304 594.796 559.36 529.278 595.169C469.572 627.801 400.843 632.75 332.94 628.401C268.894 624.299 205.698 609.248 154.062 571.136C102.695 533.223 72.3359 476.487 47.4585 417.691C20.3094 353.525 -12.4181 285.823 4.77556 218.305C22.4044 149.078 77.0843 93.613 139.041 58.0533C197.104 24.7286 266.279 23.7882 332.94 29.9572Z" fill="#CBE2DE"/>
<path d="M458.612 429.607L453.738 420.505C449.194 412.021 446.804 402.427 446.804 392.665V379.726C446.804 375.37 443.479 371.838 439.378 371.838H423.037C418.935 371.838 415.61 375.37 415.61 379.726V392.665C415.61 395.907 415.323 399.125 414.804 402.294C415.847 408.671 417.896 414.838 420.932 420.505L425.806 429.607C428.637 434.894 430.126 440.872 430.126 446.955V547.306H462.933V446.955C462.932 440.872 461.443 434.893 458.612 429.607V429.607Z" fill="#E8E8E8"/>
<path d="M217.887 429.607L213.013 420.505C208.469 412.021 206.08 402.427 206.08 392.665V379.726C206.08 375.37 202.754 371.838 198.653 371.838H182.311C178.209 371.838 174.885 375.37 174.885 379.726V392.665C174.885 402.427 172.495 412.021 167.951 420.505L163.077 429.607C160.246 434.894 158.757 440.872 158.757 446.955V547.306H222.208V446.955C222.207 440.872 220.718 434.893 217.887 429.607V429.607Z" fill="#F7F7F7"/>
<path d="M338.249 429.607L333.375 420.505C328.832 412.021 326.442 402.427 326.442 392.665V379.726C326.442 375.37 323.117 371.838 319.016 371.838H302.674C298.573 371.838 295.248 375.37 295.248 379.726V392.665C295.248 402.427 292.859 412.021 288.315 420.505L283.441 429.607C280.61 434.894 279.12 440.872 279.12 446.955V547.306H342.571V446.955C342.569 440.872 341.081 434.893 338.249 429.607Z" fill="#F7F7F7"/>
<path d="M458.612 429.607L453.738 420.505C449.194 412.021 446.804 402.427 446.804 392.665V379.726C446.804 375.37 443.479 371.838 439.377 371.838H423.036C418.934 371.838 415.609 375.37 415.609 379.726V392.665C415.609 402.427 413.22 412.021 408.676 420.505L403.802 429.607C400.971 434.894 399.481 440.872 399.481 446.955V547.306H462.932V446.955C462.931 440.872 461.443 434.893 458.612 429.607V429.607Z" fill="#F7F7F7"/>
<path d="M399.48 489.522H462.931V547.305H399.48V489.522Z" fill="#C9E2DA"/>
<path d="M578.974 429.607L574.1 420.505C569.556 412.021 567.167 402.427 567.167 392.665V379.726C567.167 375.37 563.841 371.838 559.739 371.838H543.398C539.296 371.838 535.971 375.37 535.971 379.726V392.665C535.971 402.427 533.581 412.021 529.038 420.505L524.163 429.607C521.332 434.894 519.843 440.872 519.843 446.955V547.306H583.294V446.955C583.295 440.872 581.805 434.893 578.974 429.607V429.607Z" fill="#C9E2DA"/>
<path d="M217.887 429.607L213.013 420.505C208.469 412.021 206.08 402.427 206.08 392.665V379.726C206.08 375.37 202.754 371.838 198.653 371.838H182.311C178.209 371.838 174.885 375.37 174.885 379.726V392.665C174.885 395.907 174.597 399.125 174.079 402.294C175.121 408.671 177.17 414.838 180.206 420.505L185.08 429.607C187.911 434.894 189.401 440.872 189.401 446.955V547.306H222.208V446.955C222.207 440.872 220.718 434.893 217.887 429.607Z" fill="#E8E8E8"/>
<path d="M338.249 429.607L333.375 420.505C328.832 412.021 326.442 402.427 326.442 392.665V379.726C326.442 375.37 323.117 371.838 319.016 371.838H302.675C298.573 371.838 295.248 375.37 295.248 379.726V392.665C295.248 395.907 294.959 399.125 294.442 402.294C295.484 408.671 297.534 414.838 300.569 420.505L305.443 429.607C308.275 434.894 309.764 440.872 309.764 446.955V547.306H342.571V446.955C342.569 440.872 341.081 434.893 338.249 429.607Z" fill="#E8E8E8"/>
<path d="M430.125 489.522H462.932V547.305H430.125V489.522Z" fill="#6FC3A9"/>
<path d="M578.974 429.607L574.1 420.505C569.556 412.021 567.167 402.427 567.167 392.665V379.726C567.167 375.37 563.841 371.838 559.739 371.838H543.398C539.296 371.838 535.971 375.37 535.971 379.726V392.665C535.971 395.907 535.683 399.124 535.165 402.294C536.207 408.671 538.256 414.838 541.292 420.506L546.166 429.608C548.997 434.896 550.487 440.873 550.487 446.956V547.307H583.294V446.956C583.295 440.872 581.805 434.893 578.974 429.607V429.607Z" fill="#6FC3A9"/>
<path d="M133.482 547.305H609.511V617.509H133.482V547.305Z" fill="#EBE1DC"/>
<path d="M133.482 617.51C151.737 617.51 166.536 601.794 166.536 582.408C166.536 563.021 151.737 547.305 133.482 547.305C115.227 547.305 100.428 563.021 100.428 582.408C100.428 601.794 115.227 617.51 133.482 617.51Z" fill="#9B9696"/>
<path d="M252.488 617.51C270.744 617.51 285.543 601.794 285.543 582.408C285.543 563.021 270.744 547.305 252.488 547.305C234.233 547.305 219.434 563.021 219.434 582.408C219.434 601.794 234.233 617.51 252.488 617.51Z" fill="#9B9696"/>
<path d="M371.496 617.51C389.751 617.51 404.55 601.794 404.55 582.408C404.55 563.021 389.751 547.305 371.496 547.305C353.241 547.305 338.442 563.021 338.442 582.408C338.442 601.794 353.241 617.51 371.496 617.51Z" fill="#9B9696"/>
<path d="M490.503 617.51C508.759 617.51 523.557 601.794 523.557 582.408C523.557 563.021 508.759 547.305 490.503 547.305C472.248 547.305 457.449 563.021 457.449 582.408C457.449 601.794 472.248 617.51 490.503 617.51Z" fill="#9B9696"/>
<path d="M609.51 617.51C627.765 617.51 642.564 601.794 642.564 582.408C642.564 563.021 627.765 547.305 609.51 547.305C591.254 547.305 576.456 563.021 576.456 582.408C576.456 601.794 591.254 617.51 609.51 617.51Z" fill="#9B9696"/>
<path d="M617.602 617.51H125.28V654C125.28 659.681 129.616 664.286 134.966 664.286H607.916C613.266 664.286 617.602 659.68 617.602 654V617.51Z" fill="#C8BEB9"/>
<path d="M605.211 90.2935H137.672C130.828 90.2935 125.28 96.185 125.28 103.453V137.068H617.602V103.453C617.602 96.185 612.054 90.2935 605.211 90.2935V90.2935Z" fill="#C8BEB9"/>
<path d="M584.795 90.2935V137.069H617.602V103.453C617.602 96.185 612.054 90.2935 605.211 90.2935H584.795Z" fill="#B4AAAA"/>
<path d="M628.928 189.317H114.884C106.749 189.317 100.155 182.314 100.155 173.675V152.712C100.155 144.072 106.749 137.069 114.884 137.069H628.927C637.062 137.069 643.656 144.072 643.656 152.712V173.675C643.657 182.314 637.063 189.317 628.928 189.317V189.317Z" fill="#67B59F"/>
<path d="M628.928 137.068H596.121C604.256 137.068 610.85 144.071 610.85 152.71V173.674C610.85 182.313 604.256 189.316 596.121 189.316H628.928C637.063 189.316 643.657 182.313 643.657 173.674V152.711C643.657 144.072 637.063 137.068 628.928 137.068V137.068Z" fill="#54F0C4"/>
<path d="M441.396 290.317H421.603C411.982 290.317 404.182 282.033 404.182 271.816V137.068H458.816V271.816C458.816 282.033 451.017 290.317 441.396 290.317Z" fill="#6FC3A9"/>
<path d="M133.482 591.118C138.012 591.118 141.684 587.218 141.684 582.407C141.684 577.597 138.012 573.697 133.482 573.697C128.952 573.697 125.28 577.597 125.28 582.407C125.28 587.218 128.952 591.118 133.482 591.118Z" fill="#0B3B41"/>
<path d="M252.488 591.118C257.018 591.118 260.69 587.218 260.69 582.407C260.69 577.597 257.018 573.697 252.488 573.697C247.959 573.697 244.287 577.597 244.287 582.407C244.287 587.218 247.959 591.118 252.488 591.118Z" fill="#0B3B41"/>
<path d="M371.496 591.118C376.026 591.118 379.698 587.218 379.698 582.407C379.698 577.597 376.026 573.697 371.496 573.697C366.966 573.697 363.294 577.597 363.294 582.407C363.294 587.218 366.966 591.118 371.496 591.118Z" fill="#0B3B41"/>
<path d="M486.403 574.865C482.48 577.27 481.136 582.597 483.401 586.763C485.665 590.928 490.682 592.356 494.604 589.951C498.527 587.545 499.871 582.218 497.606 578.053C495.341 573.887 490.325 572.459 486.403 574.865Z" fill="#0B3B41"/>
<path d="M605.409 574.865C601.486 577.27 600.142 582.597 602.407 586.763C604.672 590.928 609.688 592.356 613.61 589.951C617.533 587.545 618.877 582.218 616.612 578.053C614.348 573.887 609.332 572.459 605.409 574.865Z" fill="#0B3B41"/>
<path d="M628.927 128.358H625.803V103.453C625.803 91.3934 616.565 81.5835 605.21 81.5835H137.672C126.316 81.5835 117.079 91.3946 117.079 103.453V128.358H114.885C102.24 128.358 91.9529 139.283 91.9529 152.711V173.675C91.9529 187.104 102.24 198.027 114.885 198.027H140.282C144.812 198.027 148.484 194.127 148.484 189.317C148.484 184.507 144.812 180.607 140.282 180.607H114.885C111.285 180.607 108.356 177.497 108.356 173.675V152.711C108.356 148.888 111.285 145.779 114.885 145.779H395.98V180.608H173.088C168.557 180.608 164.886 184.508 164.886 189.318C164.886 194.128 168.557 198.028 173.088 198.028H395.979V271.817C395.979 286.821 407.473 299.028 421.602 299.028H423.297V328.028C423.297 332.839 426.968 336.738 431.499 336.738C436.03 336.738 439.701 332.839 439.701 328.028V299.028H441.396C455.525 299.028 467.019 286.821 467.019 271.817V198.028H628.927C641.572 198.028 651.859 187.104 651.859 173.676V152.711C651.859 139.283 641.572 128.358 628.927 128.358V128.358ZM133.482 103.453C133.482 100.999 135.362 99.0037 137.672 99.0037H605.211C607.521 99.0037 609.4 101 609.4 103.453V128.358H133.482V103.453ZM450.616 271.816C450.616 277.215 446.48 281.607 441.396 281.607H421.602C416.519 281.607 412.382 277.215 412.382 271.816V145.778H450.614V271.816H450.616ZM635.456 173.675C635.456 177.497 632.527 180.607 628.927 180.607H467.019V145.778H628.927C632.527 145.778 635.456 148.888 635.456 152.71V173.675Z" fill="#0B3B41"/>
<path d="M609.51 538.595H591.495V446.954C591.495 439.375 589.631 431.887 586.102 425.299L581.228 416.198C577.393 409.038 575.366 400.9 575.366 392.664V379.725C575.366 370.573 568.355 363.128 559.738 363.128H543.398C534.78 363.128 527.769 370.573 527.769 379.725V392.664C527.769 400.902 525.741 409.039 521.908 416.199L517.036 425.299C513.505 431.887 511.641 439.375 511.641 446.955V538.596H471.133V446.955C471.133 439.377 469.268 431.889 465.741 425.301L460.866 416.2C457.031 409.042 455.005 400.903 455.005 392.667V379.727C455.005 370.576 447.994 363.13 439.376 363.13H423.036C414.418 363.13 407.408 370.576 407.408 379.727V392.667C407.408 400.903 405.381 409.041 401.546 416.202L396.672 425.302C393.143 431.889 391.279 439.377 391.279 446.956V538.597H350.772V446.956C350.772 439.377 348.907 431.889 345.378 425.302L340.504 416.2C336.669 409.041 334.643 400.902 334.643 392.667V379.727C334.643 370.576 327.632 363.13 319.015 363.13H302.675C294.056 363.13 287.045 370.576 287.045 379.727V392.667C287.045 400.904 285.018 409.042 281.186 416.2L276.31 425.303C272.783 431.89 270.917 439.378 270.917 446.956V538.597H230.409V446.956C230.409 439.378 228.545 431.89 225.017 425.302L220.142 416.2C216.308 409.042 214.282 400.904 214.282 392.667V379.727C214.282 370.576 207.271 363.13 198.652 363.13H182.311C173.694 363.13 166.683 370.576 166.683 379.727V392.667C166.683 400.903 164.655 409.041 160.821 416.202L155.948 425.302C152.418 431.889 150.554 439.377 150.554 446.957V538.598H133.482C110.734 538.598 92.2263 558.253 92.2263 582.411C92.2263 600.381 102.47 615.851 117.079 622.602V654.002C117.079 664.477 125.103 672.999 134.966 672.999H219.434C223.965 672.999 227.636 669.099 227.636 664.288C227.636 659.478 223.965 655.578 219.434 655.578H134.966C134.148 655.578 133.482 654.871 133.482 654.002V626.223H609.4V654.002C609.4 654.871 608.734 655.578 607.916 655.578H252.241C247.711 655.578 244.04 659.478 244.04 664.288C244.04 669.099 247.711 672.999 252.241 672.999H607.915C617.779 672.999 625.803 664.477 625.803 654.002V622.654C640.471 615.931 650.765 600.426 650.765 582.41C650.766 558.249 632.258 538.595 609.51 538.595V538.595ZM219.584 556.015C214.347 563.36 211.233 572.504 211.233 582.408C211.233 592.31 214.347 601.454 219.584 608.8H166.385C171.623 601.455 174.737 592.312 174.737 582.408C174.737 572.505 171.624 563.362 166.385 556.015H219.584ZM227.636 582.408C227.636 567.855 238.785 556.015 252.49 556.015C266.193 556.015 277.342 567.855 277.342 582.408C277.342 596.961 266.194 608.8 252.49 608.8C238.786 608.8 227.636 596.961 227.636 582.408ZM285.394 556.015H338.592C333.355 563.36 330.24 572.504 330.24 582.408C330.24 592.31 333.353 601.454 338.592 608.8H285.394C290.631 601.455 293.746 592.312 293.746 582.408C293.744 572.504 290.631 563.36 285.394 556.015V556.015ZM346.644 582.408C346.644 567.855 357.791 556.015 371.496 556.015C385.199 556.015 396.348 567.855 396.348 582.408C396.348 596.961 385.201 608.8 371.496 608.8C357.792 608.8 346.644 596.961 346.644 582.408ZM404.4 556.015H457.599C452.362 563.36 449.247 572.504 449.247 582.408C449.247 592.31 452.362 601.454 457.599 608.8H404.4C409.637 601.455 412.752 592.312 412.752 582.408C412.752 572.504 409.637 563.36 404.4 556.015ZM465.651 582.408C465.651 567.855 476.799 556.015 490.503 556.015C504.207 556.015 515.357 567.855 515.357 582.408C515.357 596.961 504.208 608.8 490.503 608.8C476.799 608.8 465.651 596.961 465.651 582.408ZM523.408 556.015H576.606C571.369 563.36 568.255 572.504 568.255 582.408C568.255 592.31 571.368 601.454 576.606 608.8H523.408C528.645 601.455 531.759 592.312 531.759 582.408C531.759 572.504 528.645 563.36 523.408 556.015ZM528.044 446.954C528.044 442.389 529.168 437.879 531.293 433.912L536.167 424.811C541.405 415.031 544.172 403.916 544.172 392.664V380.547H558.963V392.664C558.963 403.914 561.731 415.031 566.969 424.811L571.843 433.913C573.968 437.88 575.092 442.39 575.092 446.954V538.595H528.044V446.954ZM410.931 433.912L415.805 424.811C421.043 415.03 423.811 403.914 423.811 392.664V380.547H438.602V392.664C438.602 403.916 441.369 415.032 446.607 424.812L451.482 433.912C453.605 437.88 454.73 442.39 454.73 446.955V480.813H407.682V446.955C407.682 442.39 408.805 437.88 410.931 433.912V433.912ZM407.682 498.232H454.73V538.595H407.682V498.232ZM287.32 446.954C287.32 442.39 288.443 437.879 290.567 433.913L295.443 424.812C300.68 415.032 303.448 403.917 303.448 392.666V380.548H318.238V392.666C318.238 403.916 321.007 415.032 326.244 424.812L331.119 433.914C333.243 437.882 334.367 442.391 334.367 446.955V538.596H287.32V446.954ZM166.957 446.954C166.957 442.389 168.08 437.879 170.206 433.912L175.08 424.811C180.319 415.03 183.086 403.914 183.086 392.664V380.547H197.877V392.664C197.877 403.916 200.645 415.032 205.882 424.812L210.757 433.912C212.881 437.88 214.005 442.39 214.005 446.955V538.596H166.957V446.954ZM108.63 582.408C108.63 567.855 119.778 556.015 133.482 556.015C147.186 556.015 158.335 567.855 158.335 582.408C158.335 596.961 147.187 608.8 133.482 608.8C119.778 608.8 108.63 596.961 108.63 582.408ZM609.51 608.8C595.806 608.8 584.657 596.961 584.657 582.408C584.657 567.855 595.805 556.015 609.51 556.015C623.213 556.015 634.362 567.855 634.362 582.408C634.362 596.961 623.214 608.8 609.51 608.8Z" fill="#0B3B41"/>
</svg>
