<svg width="750" height="700" viewBox="0 0 750 700" fill="none" xmlns="http://www.w3.org/2000/svg">
<path fill-rule="evenodd" clip-rule="evenodd" d="M315.796 7.65146C387.275 0.838219 453.066 48.614 505.863 97.2794C554.402 142.021 575.706 205.041 597.531 267.343C619.917 331.245 647.503 395.888 633.691 462.175C618.987 532.746 578.403 597.692 519.919 639.835C461.564 681.885 387.163 700.192 315.796 691.246C249.201 682.898 196.455 636.904 145.75 592.932C99.2783 552.631 60.3997 506.358 37.0003 449.47C11.9657 388.607 -13.6797 321.002 8.39764 259.005C30.2949 197.513 99.8166 172.485 150.349 131.166C204.964 86.5083 245.565 14.3456 315.796 7.65146Z" fill="#CBE2DE"/>
<path d="M445.385 205.564H366.546V161.989C366.546 158.412 369.498 155.512 373.139 155.512H438.792C442.434 155.512 445.385 158.412 445.385 161.989V205.564Z" fill="#56988C"/>
<path d="M405.966 558.875C508.718 558.875 592.016 477.06 592.016 376.136C592.016 275.212 508.718 193.397 405.966 193.397C303.214 193.397 219.917 275.212 219.917 376.136C219.917 477.06 303.214 558.875 405.966 558.875Z" fill="#77D1B3"/>
<path d="M405.966 193.397C400.687 193.397 395.463 193.625 390.296 194.048C485.712 201.866 560.674 280.397 560.674 376.135C560.674 471.873 485.712 550.405 390.296 558.223C395.463 558.647 400.687 558.874 405.966 558.874C508.719 558.874 592.016 477.059 592.016 376.135C592.016 275.211 508.718 193.397 405.966 193.397V193.397Z" fill="#67B59F"/>
<path d="M405.966 512.098C482.416 512.098 544.391 451.226 544.391 376.136C544.391 301.047 482.416 240.174 405.966 240.174C329.516 240.174 267.541 301.047 267.541 376.136C267.541 451.226 329.516 512.098 405.966 512.098Z" fill="#F7F7F7"/>
<path d="M405.966 240.174C400.666 240.174 395.44 240.477 390.296 241.047C459.367 248.692 513.05 306.252 513.05 376.136C513.05 446.021 459.366 503.58 390.296 511.226C395.44 511.795 400.666 512.098 405.966 512.098C482.417 512.098 544.391 451.226 544.391 376.136C544.391 301.047 482.416 240.174 405.966 240.174V240.174Z" fill="#E8E8E8"/>
<path d="M405.966 519.795C486.615 519.795 552.227 455.351 552.227 376.137C552.227 296.924 486.615 232.479 405.966 232.479C325.318 232.479 259.704 296.923 259.704 376.137C259.704 455.352 325.318 519.795 405.966 519.795V519.795ZM297.065 368.44H275.616C277.408 338.859 289.451 311.948 308.298 291.09L323.421 305.945C324.951 307.448 326.957 308.199 328.962 308.199C330.966 308.199 332.972 307.448 334.502 305.945C337.562 302.939 337.562 298.066 334.502 295.062L319.378 280.207C340.614 261.695 368.013 249.867 398.13 248.107V269.175C398.13 273.425 401.637 276.871 405.965 276.871C410.293 276.871 413.801 273.425 413.801 269.175V248.107C443.917 249.867 471.316 261.695 492.551 280.207L477.428 295.062C474.368 298.067 474.368 302.94 477.428 305.945C478.958 307.447 480.964 308.199 482.969 308.199C484.974 308.199 486.979 307.448 488.51 305.945L503.632 291.09C522.479 311.948 534.522 338.858 536.313 368.439H514.864C510.536 368.439 507.028 371.885 507.028 376.135C507.028 380.385 510.536 383.831 514.864 383.831H536.313C534.521 413.412 522.479 440.323 503.631 461.18L488.509 446.327C485.448 443.322 480.488 443.322 477.428 446.327C474.368 449.333 474.368 454.206 477.428 457.21L492.551 472.064C471.315 490.576 443.917 502.404 413.801 504.164V483.097C413.801 478.847 410.293 475.401 405.965 475.401C401.637 475.401 398.13 478.847 398.13 483.097V504.164C368.012 502.404 340.614 490.576 319.378 472.064L334.502 457.211C337.562 454.206 337.562 449.333 334.502 446.328C331.441 443.322 326.48 443.323 323.421 446.328L308.298 461.181C289.451 440.323 277.408 413.413 275.616 383.831H297.065C301.393 383.831 304.901 380.385 304.901 376.135C304.901 371.886 301.393 368.44 297.065 368.44V368.44Z" fill="#073828"/>
<path d="M500.971 524.26C472.572 541.871 439.72 551.179 405.966 551.179C307.699 551.179 227.752 472.655 227.752 376.136C227.752 337.06 240.571 300.102 264.82 269.254C267.465 265.891 266.833 261.058 263.407 258.46C259.982 255.863 255.062 256.483 252.417 259.848C226.028 293.413 212.081 333.625 212.081 376.136C212.081 481.142 299.058 566.571 405.966 566.571C442.686 566.571 478.432 556.44 509.337 537.274C512.997 535.005 514.09 530.252 511.78 526.658C509.469 523.064 504.631 521.992 500.971 524.26Z" fill="#073828"/>
<path d="M453.221 191.433V162.26C453.221 154.295 446.623 147.816 438.515 147.816H373.415C365.306 147.816 358.71 154.295 358.71 162.26V191.424C327.551 199.092 298.643 214.303 274.582 236.089C271.401 238.971 271.199 243.839 274.132 246.964C277.065 250.089 282.023 250.288 285.204 247.406C318.186 217.541 361.074 201.094 405.965 201.094C504.233 201.094 584.179 279.617 584.179 376.136C584.179 425.678 562.661 473.116 525.143 506.282C521.927 509.126 521.666 513.991 524.561 517.151C526.107 518.84 528.242 519.698 530.386 519.698C532.254 519.698 534.128 519.046 535.626 517.722C576.441 481.641 599.85 430.034 599.85 376.135C599.851 287.136 537.364 212.21 453.221 191.433V191.433ZM374.381 188.227V163.208H437.551V188.242C427.269 186.58 416.72 185.702 405.967 185.702C395.304 185.702 384.746 186.556 374.381 188.227V188.227Z" fill="#073828"/>
<path d="M405.966 381.526C408.906 381.526 411.463 379.935 412.804 377.583L439.833 351.035C442.893 348.03 442.893 343.157 439.833 340.151C436.773 337.146 431.812 337.146 428.75 340.151L413.8 354.834V317.356C413.8 313.106 410.293 309.66 405.965 309.66C401.637 309.66 398.13 313.106 398.13 317.356V373.829C398.131 378.081 401.638 381.526 405.966 381.526V381.526Z" fill="#073828"/>
<path d="M183.56 377.874C183.56 373.623 180.051 370.178 175.724 370.178H75.7715C71.4443 370.178 67.9362 373.623 67.9362 377.874C67.9362 382.124 71.4443 385.57 75.7715 385.57H175.724C180.051 385.57 183.56 382.125 183.56 377.874Z" fill="#073828"/>
<path d="M107.023 340.751H186.172C190.5 340.751 194.008 337.305 194.008 333.055C194.008 328.805 190.5 325.359 186.172 325.359H107.023C102.696 325.359 99.1876 328.805 99.1876 333.055C99.1876 337.305 102.695 340.751 107.023 340.751Z" fill="#073828"/>
<path d="M196.618 280.539H131.707C127.38 280.539 123.872 283.985 123.872 288.235C123.872 292.485 127.38 295.931 131.707 295.931H196.618C200.946 295.931 204.454 292.485 204.454 288.235C204.454 283.984 200.946 280.539 196.618 280.539V280.539Z" fill="#073828"/>
<path d="M194.007 419.219C194.007 414.969 190.499 411.523 186.171 411.523H107.023C102.696 411.523 99.1876 414.969 99.1876 419.219C99.1876 423.469 102.696 426.915 107.023 426.915H186.172C190.499 426.915 194.007 423.469 194.007 419.219Z" fill="#073828"/>
<path d="M196.618 456.343H131.707C127.38 456.343 123.872 459.788 123.872 464.039C123.872 468.289 127.38 471.735 131.707 471.735H196.618C200.946 471.735 204.454 468.289 204.454 464.039C204.454 459.788 200.946 456.343 196.618 456.343V456.343Z" fill="#073828"/>
</svg>
