<svg width="750" height="700" viewBox="0 0 750 700" fill="none" xmlns="http://www.w3.org/2000/svg">
<path fill-rule="evenodd" clip-rule="evenodd" d="M337.187 38.5185C410.163 30.7887 493.581 32.0464 547.55 81.77C600.46 130.517 585.702 215.027 604.222 284.545C621.37 348.915 664.272 408.113 651.926 473.575C638.816 543.087 597.388 609.734 536.199 645.225C477.288 679.395 405.102 661.197 337.187 656.128C274.91 651.481 212.112 649.323 158.647 617.049C101.795 582.73 56.0404 532.254 30.4576 470.972C3.31804 405.961 -12.1225 331.842 11.9444 265.632C35.6699 200.361 99.9481 162.911 156.889 123.15C212.688 84.1861 269.509 45.6871 337.187 38.5185Z" fill="#CBE2DE"/>
<path d="M301.488 266.351L233.211 190.534C231.582 188.724 229.479 187.476 227.175 186.949L110.929 160.397L118.355 123.676L238.154 151.037C245.066 152.617 251.373 156.362 256.26 161.791L327.02 240.387L301.488 266.351Z" fill="#6CEBC0"/>
<path d="M462.096 501.199L505.353 481.269L547.158 583.74L503.902 603.67L462.096 501.199Z" fill="#6CEBC0"/>
<path d="M535.72 511.753L490.759 379.807C488.915 374.423 488.873 368.528 490.641 363.115L497.749 341.291C499.524 335.827 499.465 329.879 497.583 324.456C495.7 319.033 492.11 314.469 487.422 311.538L345.039 222.656C340.549 219.836 335.303 218.683 330.128 219.378C324.953 220.073 320.143 222.577 316.453 226.495L284.843 260.045C281.717 263.381 279.537 267.583 278.551 272.173C277.565 276.762 277.813 281.554 279.267 286L367.147 554.024C367.952 556.461 369.242 558.685 370.928 560.544C372.614 562.404 374.657 563.857 376.918 564.803C379.179 565.749 381.606 566.167 384.033 566.028C386.459 565.889 388.829 565.196 390.982 563.997L453.377 529.07L460.641 546.805C461.537 549.01 462.84 551.001 464.475 552.66C466.109 554.318 468.041 555.61 470.155 556.459C472.269 557.308 474.522 557.696 476.78 557.6C479.038 557.505 481.255 556.927 483.299 555.902L527.003 534.12C530.825 532.226 533.841 528.879 535.455 524.738C537.068 520.597 537.163 515.964 535.72 511.753V511.753ZM386.859 538L340.72 397.291C339.046 392.209 338.862 386.707 340.194 381.512C341.525 376.317 344.309 371.673 348.178 368.196C352.046 364.718 356.816 362.57 361.858 362.035C366.899 361.501 371.975 362.605 376.414 365.202L391.492 374.048C396.885 377.182 400.997 382.325 403.037 388.486L442.461 506.912L386.859 538Z" fill="#67B59F"/>
<path d="M189.463 349.428C189.463 362.709 184.499 375.445 175.662 384.836C166.825 394.227 154.84 399.503 142.343 399.503C129.846 399.503 117.861 394.227 109.024 384.836C100.187 375.445 95.2225 362.709 95.2225 349.428C95.2225 311.038 142.343 259.544 142.343 259.544C142.343 259.544 189.463 311.038 189.463 349.428Z" fill="#6CEBC0"/>
<path d="M553.096 580.747L535.245 536.999C538.936 533.692 541.582 529.259 542.824 524.301C544.067 519.343 543.846 514.099 542.191 509.279L497.23 377.316C495.934 373.502 495.904 369.332 497.144 365.498L504.236 343.666C506.509 336.605 506.422 328.927 503.99 321.927C501.558 314.926 496.93 309.031 490.885 305.233L348.514 216.351C342.707 212.73 335.934 211.257 329.255 212.163C322.576 213.069 316.368 216.303 311.603 221.359L290.592 243.671L238.182 185.488C235.597 182.614 232.259 180.631 228.601 179.797L119.089 154.789L123.624 132.351L236.662 158.185C242.239 159.451 247.333 162.459 251.289 166.823L289.17 208.89C290.43 210.289 292.162 211.1 293.984 211.142C295.806 211.185 297.57 210.457 298.887 209.117C300.204 207.778 300.966 205.938 301.006 204.002C301.046 202.065 300.361 200.191 299.101 198.792L261.208 156.712C255.356 150.245 247.817 145.786 239.56 143.91L119.796 116.536C118.913 116.333 118.002 116.317 117.113 116.49C116.225 116.662 115.377 117.019 114.619 117.54C113.86 118.061 113.206 118.736 112.694 119.526C112.181 120.316 111.821 121.206 111.632 122.144L104.211 158.866C103.829 160.759 104.17 162.736 105.16 164.363C106.149 165.989 107.706 167.131 109.488 167.537L225.683 194.068C226.656 194.293 227.546 194.815 228.243 195.57L280.861 253.99L280.005 254.9C275.971 259.211 273.155 264.638 271.878 270.564C270.601 276.49 270.913 282.678 272.78 288.425L291.279 344.821C291.945 346.554 293.211 347.948 294.816 348.718C296.421 349.487 298.243 349.572 299.905 348.955C301.568 348.338 302.944 347.067 303.75 345.403C304.556 343.74 304.73 341.811 304.237 340.014L285.754 283.605C284.734 280.457 284.564 277.068 285.264 273.823C285.965 270.578 287.507 267.606 289.716 265.245L321.306 231.695C323.919 228.919 327.324 227.144 330.988 226.647C334.652 226.15 338.368 226.96 341.552 228.949L483.923 317.831C487.238 319.914 489.777 323.147 491.111 326.986C492.445 330.825 492.493 335.036 491.246 338.908L484.155 360.741C481.887 367.736 481.941 375.345 484.308 382.302L529.268 514.261C530.131 516.758 530.079 519.508 529.122 521.966C528.166 524.424 526.375 526.41 524.105 527.531C524.046 527.556 523.983 527.564 523.924 527.593C523.865 527.623 523.728 527.714 523.626 527.769L481.339 548.837C481.308 548.837 481.272 548.858 481.241 548.875C481.209 548.892 481.131 548.942 481.072 548.971L480.389 549.313C479.175 549.918 477.86 550.258 476.52 550.312C475.181 550.367 473.845 550.136 472.591 549.633C471.337 549.129 470.191 548.364 469.22 547.381C468.25 546.399 467.474 545.22 466.94 543.913L459.687 526.15C459.311 525.227 458.76 524.397 458.068 523.712C457.376 523.027 456.558 522.501 455.666 522.168C454.774 521.834 453.826 521.701 452.883 521.775C451.94 521.849 451.021 522.129 450.185 522.598L387.797 557.525C386.521 558.239 385.114 558.652 383.674 558.736C382.234 558.819 380.793 558.572 379.451 558.01C378.109 557.447 376.897 556.584 375.898 555.479C374.899 554.373 374.136 553.052 373.661 551.604L328.771 414.759C328.171 412.93 326.912 411.429 325.271 410.587C323.63 409.744 321.741 409.629 320.02 410.267C318.299 410.904 316.887 412.242 316.094 413.986C315.302 415.73 315.193 417.737 315.793 419.566L360.668 556.403C361.791 559.836 363.6 562.971 365.969 565.592C368.338 568.214 371.212 570.261 374.394 571.593C377.577 572.925 380.992 573.511 384.408 573.311C387.823 573.111 391.157 572.129 394.182 570.432L450.008 539.177L454.327 549.722C456.443 554.911 460.14 559.194 464.822 561.881C469.505 564.569 474.902 565.505 480.145 564.54L497.262 606.457C497.795 607.763 498.676 608.876 499.796 609.657C500.917 610.439 502.228 610.855 503.568 610.855C504.514 610.859 505.45 610.653 506.317 610.25L549.546 590.349C550.374 589.969 551.124 589.419 551.752 588.731C552.38 588.043 552.874 587.23 553.206 586.338C553.538 585.447 553.701 584.494 553.686 583.536C553.671 582.577 553.479 581.631 553.119 580.752L553.096 580.747ZM507.134 593.959L492.939 559.19L523.174 544.122L537.758 579.859L507.134 593.959Z" fill="#0B3B41"/>
<path d="M320.717 390.202L314.262 370.527C313.999 369.577 313.557 368.694 312.963 367.932C312.37 367.169 311.636 366.543 310.808 366.091C309.979 365.639 309.073 365.371 308.144 365.303C307.215 365.234 306.282 365.367 305.403 365.694C304.524 366.02 303.716 366.533 303.029 367.202C302.342 367.87 301.79 368.68 301.407 369.582C301.024 370.484 300.817 371.459 300.799 372.448C300.781 373.438 300.953 374.421 301.304 375.338L307.755 395.009C308.355 396.838 309.614 398.338 311.255 399.181C312.896 400.023 314.785 400.138 316.506 399.501C318.227 398.863 319.639 397.526 320.432 395.782C321.225 394.038 321.333 392.031 320.733 390.202H320.717Z" fill="#0B3B41"/>
<path d="M381.825 283.117C383.396 284.099 385.27 284.377 387.035 283.89C388.799 283.403 390.309 282.192 391.233 280.522C392.157 278.852 392.419 276.86 391.96 274.985C391.502 273.11 390.362 271.505 388.791 270.524L367.979 257.533C366.406 256.552 364.53 256.276 362.764 256.764C360.999 257.253 359.488 258.467 358.565 260.139C357.642 261.812 357.381 263.805 357.841 265.681C358.301 267.558 359.444 269.163 361.017 270.144L381.825 283.117Z" fill="#0B3B41"/>
<path d="M334.229 399.691L380.368 540.383C380.693 541.375 381.216 542.281 381.901 543.039C382.586 543.796 383.416 544.388 384.336 544.773C385.255 545.159 386.242 545.329 387.229 545.272C388.216 545.215 389.18 544.932 390.055 544.443L445.657 513.36C447.119 512.543 448.255 511.193 448.857 509.559C449.459 507.924 449.487 506.114 448.936 504.459L409.516 386.033C406.908 378.186 401.671 371.635 394.806 367.63L379.724 358.821C374.069 355.519 367.605 354.116 361.184 354.798C354.763 355.479 348.688 358.214 343.76 362.641C338.832 367.068 335.283 372.979 333.582 379.593C331.88 386.208 332.106 393.215 334.229 399.691V399.691ZM353.156 373.343C356.35 370.677 360.294 369.228 364.355 369.229H364.449L397.347 460.527L392.003 478.721C391.733 479.636 391.636 480.598 391.717 481.553C391.798 482.508 392.056 483.437 392.475 484.286C392.894 485.135 393.466 485.888 394.16 486.502C394.853 487.116 395.653 487.579 396.514 487.863C397.177 488.086 397.869 488.199 398.564 488.197C400.028 488.197 401.454 487.7 402.633 486.778C403.812 485.856 404.682 484.558 405.118 483.073L411.177 462.463C411.639 460.895 411.59 459.207 411.035 457.673L381.872 376.731L388.194 380.424C392.101 382.708 395.082 386.439 396.569 390.907L434.007 503.374L390.727 527.577L347.215 394.879C345.968 391.079 345.87 386.96 346.935 383.099C348 379.237 350.175 375.826 353.156 373.343V373.343Z" fill="#0B3B41"/>
<path d="M142.343 252.225C141.424 252.225 140.515 252.421 139.668 252.8C138.822 253.18 138.056 253.737 137.415 254.437C137.124 254.758 130.092 262.461 121.386 274.191C120.827 274.944 120.413 275.807 120.168 276.73C119.923 277.653 119.851 278.618 119.957 279.57C120.062 280.523 120.344 281.444 120.784 282.281C121.225 283.118 121.816 283.854 122.525 284.448C123.956 285.648 125.777 286.194 127.587 285.967C129.397 285.74 131.048 284.759 132.177 283.238C136.076 277.984 139.637 273.548 142.339 270.327C154.052 284.365 182.592 321.436 182.592 349.428C182.592 360.772 178.351 371.651 170.803 379.672C163.255 387.694 153.018 392.2 142.343 392.2C131.668 392.2 121.431 387.694 113.883 379.672C106.335 371.651 102.094 360.772 102.094 349.428C102.094 338.867 106.28 325.793 114.538 310.562C115.448 308.884 115.694 306.89 115.221 305.019C114.747 303.148 113.594 301.554 112.015 300.587C110.436 299.619 108.56 299.358 106.799 299.861C105.039 300.364 103.539 301.589 102.628 303.268C93.1571 320.731 88.3508 336.258 88.3508 349.428C88.3508 356.963 89.7474 364.424 92.4607 371.385C95.1741 378.347 99.1511 384.672 104.165 390C109.178 395.328 115.13 399.554 121.681 402.438C128.232 405.321 135.253 406.805 142.343 406.805C149.433 406.805 156.454 405.321 163.005 402.438C169.556 399.554 175.508 395.328 180.521 390C185.535 384.672 189.512 378.347 192.225 371.385C194.939 364.424 196.335 356.963 196.335 349.428C196.335 308.534 149.274 256.64 147.271 254.453C146.632 253.75 145.866 253.191 145.02 252.808C144.173 252.425 143.263 252.227 142.343 252.225V252.225Z" fill="#0B3B41"/>
</svg>
